<?xml version="1.0" encoding="utf-8"?>
<svg xmlns="http://www.w3.org/2000/svg" viewBox="0 0 30 30" width="480" height="480">
  <path d="M5 4C3.895 4 3 4.895 3 6L3 20C3 21.105 3.895 22 5 22L25 22C26.105 22 27 21.105 27 20L27 6C27 4.895 26.105 4 25 4L5 4 z M 5 6L25 6L25 18L5 18L5 6 z M 15 19C15.552 19 16 19.448 16 20C16 20.552 15.552 21 15 21C14.448 21 14 20.552 14 20C14 19.448 14.448 19 15 19 z M 10 24 A 1.0001 1.0001 0 1 0 10 26L20 26 A 1.0001 1.0001 0 1 0 20 24L10 24 z" fill="#FFFFFF" />
</svg>