<?xml version="1.0" encoding="utf-8"?>
<svg xmlns="http://www.w3.org/2000/svg" viewBox="0 0 24 24" width="96" height="96">
  <path d="M12,22C6.5,22,2,17.5,2,12C2,6.5,6.5,2,12,2c2.5,0,4.8,0.9,6.7,2.5L17.3,6C15.9,4.7,14,4,12,4c-4.4,0-8,3.6-8,8s3.6,8,8,8 c0.6,0,1.2-0.1,1.8-0.2l0.4,2C13.5,21.9,12.7,22,12,22z" fill="#FFFFFF" />
  <path d="M15 7L20 7 20 2zM18 20.4L15.3 17.7 16.7 16.3 18 17.6 21.3 14.3 22.7 15.7z" fill="#FFFFFF" />
  <path d="M18,24c-3.3,0-6-2.7-6-6s2.7-6,6-6s6,2.7,6,6S21.3,24,18,24z M18,14c-2.2,0-4,1.8-4,4s1.8,4,4,4s4-1.8,4-4S20.2,14,18,14z" fill="#FFFFFF" />
  <path d="M18 13A5 5 0 1 0 18 23A5 5 0 1 0 18 13Z" opacity=".3" fill="#FFFFFF" />
</svg>